<svg xmlns="http://www.w3.org/2000/svg" width="1600" height="900" viewBox="0 0 1600 900">
<rect width="1600" height="900" fill="#101216"/>
<rect x="0" y="0" width="1600" height="6" fill="#2dd4bf"/>
<text x="80" y="118" font-family="Helvetica" font-size="54" font-weight="bold" fill="#f2f4f7">Where it sits in your pipeline</text>
<text x="80" y="172" font-family="Helvetica" font-size="30" fill="#98a1ad">Verification before outreach - every row carries its evidence</text>
<rect x="60.0" y="300" width="440" height="340" rx="18" fill="#1a1e25" stroke="#2a2f38" stroke-width="2"/>
<rect x="60.0" y="300" width="8" height="340" rx="4" fill="#2dd4bf"/>
<text x="96.0" y="362" font-family="Helvetica" font-size="34" font-weight="bold" fill="#f2f4f7">Trigger</text>
<text x="96.0" y="424" font-family="Helvetica" font-size="27" fill="#98a1ad">Apify API / schedule</text>
<text x="96.0" y="466" font-family="Helvetica" font-size="27" fill="#98a1ad">CRM export of prospects</text>
<text x="96.0" y="508" font-family="Helvetica" font-size="27" fill="#98a1ad">n8n / Make / Zapier step</text>
<rect x="367.0" y="572" width="105" height="44" rx="22" fill="#2dd4bf"/>
<text x="419.5" y="601" font-family="Helvetica" font-size="24" font-weight="bold" fill="#101216" text-anchor="middle">START</text>
<line x1="508.0" y1="470.0" x2="546.0" y2="470.0" stroke="#2dd4bf" stroke-width="5"/><path d="M 546.0 456.0 L 572.0 470.0 L 546.0 484.0 Z" fill="#2dd4bf"/>
<rect x="580.0" y="300" width="440" height="340" rx="18" fill="#1a1e25" stroke="#2a2f38" stroke-width="2"/>
<rect x="580.0" y="300" width="8" height="340" rx="4" fill="#2dd4bf"/>
<text x="616.0" y="362" font-family="Helvetica" font-size="34" font-weight="bold" fill="#f2f4f7">Actor run</text>
<text x="616.0" y="424" font-family="Helvetica" font-size="27" fill="#98a1ad">robots-first page reads</text>
<text x="616.0" y="466" font-family="Helvetica" font-size="27" fill="#98a1ad">schema.org Person assertion</text>
<text x="616.0" y="508" font-family="Helvetica" font-size="27" fill="#98a1ad">competitor-aware matching</text>
<rect x="917.0" y="572" width="75" height="44" rx="22" fill="#2dd4bf"/>
<text x="954.5" y="601" font-family="Helvetica" font-size="24" font-weight="bold" fill="#101216" text-anchor="middle">RUN</text>
<line x1="1028.0" y1="470.0" x2="1066.0" y2="470.0" stroke="#2dd4bf" stroke-width="5"/><path d="M 1066.0 456.0 L 1092.0 470.0 L 1066.0 484.0 Z" fill="#2dd4bf"/>
<rect x="1100.0" y="300" width="440" height="340" rx="18" fill="#1a1e25" stroke="#2a2f38" stroke-width="2"/>
<rect x="1100.0" y="300" width="8" height="340" rx="4" fill="#2dd4bf"/>
<text x="1136.0" y="362" font-family="Helvetica" font-size="34" font-weight="bold" fill="#f2f4f7">Act on rows</text>
<text x="1136.0" y="424" font-family="Helvetica" font-size="27" fill="#98a1ad">found:true -&gt; outreach queue</text>
<text x="1136.0" y="466" font-family="Helvetica" font-size="27" fill="#98a1ad">partial -&gt; human review</text>
<text x="1136.0" y="508" font-family="Helvetica" font-size="27" fill="#98a1ad">never auto-send by default</text>
<rect x="1437.0" y="572" width="75" height="44" rx="22" fill="#2dd4bf"/>
<text x="1474.5" y="601" font-family="Helvetica" font-size="24" font-weight="bold" fill="#101216" text-anchor="middle">CRM</text>
<text x="80" y="852" font-family="Helvetica" font-size="24" fill="#98a1ad">apify.com/zinin · pay per verified result · robots.txt honoured on every host</text>
</svg>