<svg xmlns="http://www.w3.org/2000/svg" width="1600" height="900" viewBox="0 0 1600 900">
<rect width="1600" height="900" fill="#101216"/>
<rect x="0" y="0" width="1600" height="6" fill="#f59e0b"/>
<text x="80" y="118" font-family="Helvetica" font-size="54" font-weight="bold" fill="#f2f4f7">Job Posting to Hiring Manager Email</text>
<text x="80" y="172" font-family="Helvetica" font-size="30" fill="#98a1ad">From a live vacancy to the person who owns the hire - with evidence</text>
<rect x="60.0" y="300" width="440" height="340" rx="18" fill="#1a1e25" stroke="#2a2f38" stroke-width="2"/>
<rect x="60.0" y="300" width="8" height="340" rx="4" fill="#f59e0b"/>
<text x="96.0" y="362" font-family="Helvetica" font-size="34" font-weight="bold" fill="#f2f4f7">You submit</text>
<text x="96.0" y="424" font-family="Helvetica" font-size="27" fill="#98a1ad">job URL (Greenhouse / Lever)</text>
<text x="96.0" y="466" font-family="Helvetica" font-size="27" fill="#98a1ad">or companyDomain + jobTitle</text>
<text x="96.0" y="508" font-family="Helvetica" font-size="27" fill="#98a1ad">your own provider key (BYOK)</text>
<rect x="367.0" y="572" width="105" height="44" rx="22" fill="#f59e0b"/>
<text x="419.5" y="601" font-family="Helvetica" font-size="24" font-weight="bold" fill="#101216" text-anchor="middle">INPUT</text>
<line x1="508.0" y1="470.0" x2="546.0" y2="470.0" stroke="#f59e0b" stroke-width="5"/><path d="M 546.0 456.0 L 572.0 470.0 L 546.0 484.0 Z" fill="#f59e0b"/>
<rect x="580.0" y="300" width="440" height="340" rx="18" fill="#1a1e25" stroke="#2a2f38" stroke-width="2"/>
<rect x="580.0" y="300" width="8" height="340" rx="4" fill="#f59e0b"/>
<text x="616.0" y="362" font-family="Helvetica" font-size="34" font-weight="bold" fill="#f2f4f7">The Actor resolves</text>
<text x="616.0" y="424" font-family="Helvetica" font-size="27" fill="#98a1ad">the board vacancy itself</text>
<text x="616.0" y="466" font-family="Helvetica" font-size="27" fill="#98a1ad">corroborated employer identity</text>
<text x="616.0" y="508" font-family="Helvetica" font-size="27" fill="#98a1ad">the accountable hiring owner</text>
<rect x="842.0" y="572" width="150" height="44" rx="22" fill="#f59e0b"/>
<text x="917.0" y="601" font-family="Helvetica" font-size="24" font-weight="bold" fill="#101216" text-anchor="middle">EVIDENCE</text>
<line x1="1028.0" y1="470.0" x2="1066.0" y2="470.0" stroke="#f59e0b" stroke-width="5"/><path d="M 1066.0 456.0 L 1092.0 470.0 L 1066.0 484.0 Z" fill="#f59e0b"/>
<rect x="1100.0" y="300" width="440" height="340" rx="18" fill="#1a1e25" stroke="#2a2f38" stroke-width="2"/>
<rect x="1100.0" y="300" width="8" height="340" rx="4" fill="#f59e0b"/>
<text x="1136.0" y="362" font-family="Helvetica" font-size="34" font-weight="bold" fill="#f2f4f7">You receive</text>
<text x="1136.0" y="424" font-family="Helvetica" font-size="27" fill="#98a1ad">owner name, title, email</text>
<text x="1136.0" y="466" font-family="Helvetica" font-size="27" fill="#98a1ad">per-vacancy evidence trail</text>
<text x="1136.0" y="508" font-family="Helvetica" font-size="27" fill="#98a1ad">pay only per owner_match</text>
<rect x="1407.0" y="572" width="105" height="44" rx="22" fill="#f59e0b"/>
<text x="1459.5" y="601" font-family="Helvetica" font-size="24" font-weight="bold" fill="#101216" text-anchor="middle">$0.02</text>
<text x="80" y="852" font-family="Helvetica" font-size="24" fill="#98a1ad">apify.com/zinin · pay per verified result · robots.txt honoured on every host</text>
</svg>